# xmcd
#
# Track frame offsets: 
#        150
#        13936
#        27119
#        40662
#        54361
#        66035
#        77525
#        89078
#        101654
#        114578
#        128527
#        146709
#        176281
#        189841
#        214201
#        239716
#        260601
#        277411
#
# Disc length: 3879 seconds
#
# Revision: 2
# Processed by: cddbd v1.5.2PL0 Copyright (c) Steve Scherf et al.
# Submitted via: ExactAudioCopy v1.0b1
#
DISCID=020f2512
DTITLE=Miles Davis - Denial
DYEAR=1900
DGENRE=Jazz
TTITLE0=Moose The Mooche
TTITLE1=Yarbird Suite
TTITLE2=Ornithology
TTITLE3=Night In Tunisia
TTITLE4=Milestones
TTITLE5=Move
TTITLE6=Budo
TTITLE7=Deception
TTITLE8=Odjenar
TTITLE9=Hibeck
TTITLE10=Conception
TTITLE11=My Old Flame
TTITLE12=Blue Room
TTITLE13=It's Only A Papermoon
TTITLE14=Denial
TTITLE15=How Deep Is The Ocean
TTITLE16=Yesterdays
TTITLE17=Chance It
EXTD=
EXTT0=
EXTT1=
EXTT2=
EXTT3=
EXTT4=
EXTT5=
EXTT6=
EXTT7=
EXTT8=
EXTT9=
EXTT10=
EXTT11=
EXTT12=
EXTT13=
EXTT14=
EXTT15=
EXTT16=
EXTT17=
PLAYORDER=
